<svg xmlns="http://www.w3.org/2000/svg" id="Capa_1" data-name="Capa 1" viewBox="0 0 1080 1080"><defs><style>.cls-2{fill:#00d30a}</style></defs><path fill="#5000ad" d="M0 0h1080v64.5H0z"/><path d="m105.5 32.6-23 31.9H63.9l23.3-32.2 4.4-6.1 13.1 6.1.8.3z" class="cls-2"/><path d="m105.5 31.9-.8.4-13.1 6-4.4-6L63.9 0h18.6l23 31.9zm50.5.7-23 31.9h-18.5l23.2-32.2 4.4-6.1 13.1 6.1.8.3z" class="cls-2"/><path d="m156 31.9-.8.4-13.1 6-4.4-6L114.5 0H133l23 31.9zm50.5.7-23 31.9H165l23.3-32.2 4.3-6.1 13.2 6.1.7.3z" class="cls-2"/><path d="m206.5 31.9-.7.4-13.2 6-4.3-6L165 0h18.5l23 31.9zm52.5.7-23 31.9h-18.5l23.3-32.2 4.3-6.1 13.2 6.1.7.3z" class="cls-2"/><path d="m259 31.9-.7.4-13.2 6-4.3-6L217.5 0H236l23 31.9zm51.6.7-23 31.9H269l23.3-32.2 4.3-6.1 13.2 6.1.8.3z" class="cls-2"/><path d="m310.6 31.9-.8.4-13.2 6-4.3-6L269 0h18.6l23 31.9zm48.5.7-23 31.9h-18.5l23.2-32.2 4.4-6.1 13.1 6.1.8.3z" class="cls-2"/><path d="m359.1 31.9-.8.4-13.1 6-4.4-6L317.6 0h18.5l23 31.9z" class="cls-2"/><path fill="#fff" d="M465.4 47.9h-22.1c-3.6 0-5.8-.7-6.8-2s-.8-3.4.4-6.1l5.3-12a13.2 13.2 0 0 1 5-6 16 16 0 0 1 8.6-2h22.1l-2.8 6.4h-18.8a11.4 11.4 0 0 0-2.6.2 5 5 0 0 0-3.1 2.2 12 12 0 0 0-1 1.9h23.6l-2.8 6.4h-23.7l-.1.2a9.8 9.8 0 0 0-.7 2 2 2 0 0 0 .1 1.3 1.7 1.7 0 0 0 1.1.7 8 8 0 0 0 2.4.3h18.8Zm49-28.1-12.5 28h-7.6l-8.9-16-7.1 16h-8.6l12.5-28h7.6l8.9 16 7.2-16Zm21.6 6.4-9.6 21.7H518l9.7-21.7h-11.8l2.9-6.4h32l-3 6.4Zm34 11.9 5 9.9h-9.5l-5-9.7h-5.2L551 48h-8.5L555 19.8h22c3.5 0 5.8.7 6.7 2s.9 3.4-.3 6l-1 2.3a13.7 13.7 0 0 1-4.7 5.9 14.5 14.5 0 0 1-7.6 2.1Zm1.4-12h-10.9l-2.4 5.6h10.8a8.8 8.8 0 0 0 3.6-.5 4.3 4.3 0 0 0 1.9-2.2 7.5 7.5 0 0 0 .5-1.5.8.8 0 0 0-.2-.8 2.2 2.2 0 0 0-1.2-.4 17.7 17.7 0 0 0-2.1-.1Zm39.5 21.8h-22.2c-3.5 0-5.8-.7-6.7-2s-.9-3.4.3-6.1l5.3-12a13.1 13.1 0 0 1 5-6 16 16 0 0 1 8.6-2h22.2l-2.9 6.4h-18.8a11.4 11.4 0 0 0-2.6.2 5.4 5.4 0 0 0-1.8.8 5.3 5.3 0 0 0-1.3 1.4 12 12 0 0 0-1 1.9h23.6l-2.8 6.4H592l-.1.2a9.6 9.6 0 0 0-.7 2 2 2 0 0 0 .2 1.3 1.7 1.7 0 0 0 1 .8 8 8 0 0 0 2.4.2h18.8Zm36.4 0h-22.2c-3.5 0-5.7-.7-6.7-2s-.9-3.4.4-6.1l5.3-12a13.2 13.2 0 0 1 5-6 16 16 0 0 1 8.5-2h22.2l-2.8 6.4h-18.8a11.4 11.4 0 0 0-2.6.3 5.4 5.4 0 0 0-1.8.8 5.3 5.3 0 0 0-1.3 1.3 12 12 0 0 0-1 1.9l-3 6.7a9 9 0 0 0-.7 1.9 2 2 0 0 0 .1 1.3 1.7 1.7 0 0 0 1.1.8 8 8 0 0 0 2.4.3h10.2l4.1-9.2h8.6Zm45.3-20-8.9 20h-8.5l5-11H665l-4.9 11h-8.5l8.9-20a13.2 13.2 0 0 1 5-6.1 16 16 0 0 1 8.6-2h12.2q5.2 0 6.7 2t-.4 6ZM668 30.5h15a9.6 9.6 0 0 0 .6-1.9 2 2 0 0 0 0-1.4 1.8 1.8 0 0 0-1.2-.7 8.4 8.4 0 0 0-2.3-.3h-5.4a11.3 11.3 0 0 0-2.7.2 5.4 5.4 0 0 0-1.8.9 5.5 5.5 0 0 0-1.3 1.3 12 12 0 0 0-1 1.9Zm47.6 17.4h-8.5l12.5-28.1h8.5Zm48.9-28.1-12.5 28h-7.6l-8.8-16-7.2 16h-8.5l12.5-28h7.6l8.9 16 7.1-16Zm12.8 0 4.5 15 17.8-15h8.4L795.5 48H787l6.6-14.7L777 46.9h-1.2l-4.3-13.7-6.6 14.7h-8.5l12.5-28Zm54.6 28.1h-22.2q-5.3 0-6.7-2c-1-1.4-.9-3.4.3-6.1l5.3-12a13.1 13.1 0 0 1 5.1-6 16 16 0 0 1 8.5-2h22.2l-2.9 6.4h-18.8a11.3 11.3 0 0 0-2.6.2 5 5 0 0 0-3.1 2.2 12.8 12.8 0 0 0-1 1.9h23.6l-2.8 6.4H813v.2a9.8 9.8 0 0 0-.7 2 2 2 0 0 0 0 1.3 1.7 1.7 0 0 0 1.2.8 8 8 0 0 0 2.3.2h18.8Zm45.3-20L872 39.8a13.2 13.2 0 0 1-5 6 16.1 16.1 0 0 1-8.6 2h-22.1l12.5-28h22.1c3.6 0 5.8.7 6.8 2s.8 3.3-.4 6Zm-12.6-1.7h-10.3l-6.8 15.3h10.3a10.9 10.9 0 0 0 2.6-.3 5.3 5.3 0 0 0 1.8-.8 5.4 5.4 0 0 0 1.3-1.3 11.7 11.7 0 0 0 1-2l3-6.6a9.7 9.7 0 0 0 .7-1.9 2 2 0 0 0-.1-1.4 1.8 1.8 0 0 0-1.2-.8 8.5 8.5 0 0 0-2.3-.2Zm16.6 21.7h-8.6l12.5-28.1h8.6Zm45.3-20-9 20h-8.4l4.9-11h-15.1l-5 11h-8.5l9-20a13.2 13.2 0 0 1 5-6.1 16 16 0 0 1 8.5-2h12.2c3.5 0 5.8.6 6.7 2s.9 3.3-.3 6Zm-24.8 2.6h15.1a9.6 9.6 0 0 0 .6-1.9 2 2 0 0 0 0-1.4 1.8 1.8 0 0 0-1.2-.7 8.5 8.5 0 0 0-2.3-.3h-5.4a11.4 11.4 0 0 0-2.7.2 5 5 0 0 0-3 2.2 12 12 0 0 0-1.1 1.9Zm50.1-4.3L942 47.9h-8.5l9.7-21.7h-11.8l2.9-6.4h32l-3 6.4Zm47.3 1.7-8.9 20h-8.5l4.9-11h-15.1l-4.9 11h-8.5l8.9-20a13.2 13.2 0 0 1 5-6.1 16 16 0 0 1 8.5-2h12.2q5.3 0 6.7 2c1 1.3 1 3.3-.3 6Zm-24.8 2.6h15.1a9.7 9.7 0 0 0 .7-1.9 2 2 0 0 0-.1-1.4 1.8 1.8 0 0 0-1.1-.7 8.5 8.5 0 0 0-2.4-.3h-5.4a11.4 11.4 0 0 0-2.6.2 5 5 0 0 0-3.1 2.2 12 12 0 0 0-1 1.9Z"/></svg>